<svg id="RED" xmlns="http://www.w3.org/2000/svg" viewBox="0 0 1265.18 286.48"><defs><style>.cls-1{fill:#fff;}.cls-2{fill:#ff0001;fill-rule:evenodd;}</style></defs><circle class="cls-1" cx="1137.93" cy="128.71" r="101.04"/><path class="cls-2" d="M966,139.17H902.86c-18.56,0-30.77,15.77-31.3,40.71s11.8,42,32.67,42h22.4v30c0,6.09-3.25,9.36-8,9.35s-8.11-2.76-8.11-9.35V237.73H872.86c-.67,32.85,19,34.46,43.94,34.65s33.92-7.17,44.84-18.47V147.39A9.35,9.35,0,0,1,964,141ZM926.4,155.42V205c0,4.52-3.2,8.22-7.59,8.22s-7.52-3.7-7.52-8.22v-49.6c0-5.43,3.53-8.14,7.52-8.14s7.59,2.71,7.59,8.14M772.55,221.69l2.21-2.31a7.22,7.22,0,0,0,2.13-5.11V148.6c0-3.51-.28-5.09-2.19-7.24l-2-2.24H811v4.94a54.78,54.78,0,0,1,27.69-6.85c11.75.53,19.86,7.13,19.86,15.63V213.5a7.53,7.53,0,0,0,2.15,5.83l2.2,2.36h-38V160.05c0-4.82-2.89-7.65-6.8-7.61s-7.07,2.82-7.07,7.61v61.64ZM727,168.78V155.69c0-5.5-3.86-8.56-7.71-8.4s-7.7,2.55-7.7,8v8.18h-33c.63-6.66,1.07-11.69,5.27-16.32,5.33-5.9,14.9-8.14,28-8h52.18l-2,2.17a7.67,7.67,0,0,0-2.34,5.37V213.1a9.44,9.44,0,0,0,2.11,6.34l2.07,2.24H726.21v-4.46c-9.29,4.54-22,6.82-31.46,4.6-10.22-2.39-18.06-12.9-18-25.45.2-19.84,13.71-27.59,28.82-27.59Zm-7.7,8.73c5.54,0,8,4,8,9.83V201.8c0,5.33-3.81,9.13-8,9.13s-8.23-3.77-8.23-9.13V187.34c0-5.88,2.69-9.83,8.23-9.83M668.69,139.1l-2.21,2.31a7.21,7.21,0,0,0-2.13,5.1v65.13c0,3.51.28,5.09,2.19,7.24l2,2.24H630.27v-4.94A54.68,54.68,0,0,1,602.58,223c-11.75-.52-19.86-7.12-19.86-15.63v-60.1a7.48,7.48,0,0,0-2.16-5.83l-2.19-2.36h38v60.49c0,4.83,2.89,8.24,6.8,8.21s7.07-3.42,7.07-8.21V139.1Zm-99,0-62.51.07c-20.29,0-32.48,17-32.31,41.91S488,221.8,508.34,221.74l22.09-.07v41.81a7.61,7.61,0,0,1-2.25,6l-2.17,2.4h44.08l-2.49-2.72a8.22,8.22,0,0,1-2-5.23V147.5a8.38,8.38,0,0,1,2-6Zm-47.79,8.18c4.3,0,8.37,3.35,8.37,7.89V205.1c0,4.41-3.15,8-7.46,8a8.26,8.26,0,0,1-8.35-8V155.24c0-4.43,3.15-8,7.44-8M336.79,221.43l2.2-2.3a7.24,7.24,0,0,0,2.13-5.11V148.6c0-3.51-.28-5.09-2.19-7.24l-2-2.24H375.2v4.94a54.81,54.81,0,0,1,27.7-6.85c11.74.53,19.85,7.13,19.85,15.63v60.41a7.51,7.51,0,0,0,2.16,5.83l2.19,2.35h-38V160.38c0-4.83-2.9-8-6.81-7.94s-7.07,3.15-7.07,7.94v61.05Zm-87.61-92.76L259.1,117h46.14l9.92,11.69H300.59l-3.9-4.92h-29l-3.9,4.92Zm79.17,53.8-53.31,0v24c0,6,3.6,9,7.89,8.71,3.79-.28,7.56-3.14,7.56-8.71l0-15.31h37.36c0,6.91-3.2,13.8-7.49,19.33-6.68,8.61-18.54,13.84-37.61,13.69-26.54-.21-45.41-10.43-45.47-43.46s17.3-43.75,45.6-43.7c26.94,0,41.48,11.49,44.52,30.16.43,2.65,1,12.28,1,15.31M282.79,146a7.83,7.83,0,0,1,7.65,7.94V171.3H275.17V153.94a7.64,7.64,0,0,1,7.62-7.94m-.7,85c9,0,16.38,3.2,16.38,7.13s-7.36,7.12-16.38,7.12-16.38-3.2-16.38-7.12,7.35-7.13,16.38-7.13m-96.74-91.92h42.88l-2.94,3.28a7.75,7.75,0,0,0-1.47,5.1V213.2a7.78,7.78,0,0,0,1.47,5.11l2.94,3.28H185.35l2.94-3.28a7.69,7.69,0,0,0,1.47-5.11V147.44a7.7,7.7,0,0,0-1.47-5.1ZM12.63,113.38h116V101.84c-.39-2.41-.51-2.91-1.79-4.39l-2.64-2.92h44.12l-2.7,2.86a7,7,0,0,0-1.75,4.86v11.13H182v10.41H163.83v89.89a6.79,6.79,0,0,0,1.85,4.64l2.68,2.87h-64c-14.1,0-27.79-10.67-30.39-32.58a75.14,75.14,0,0,1,0-17.48c2.68-20.62,15-32,30.77-32h23.88v-15.3h-116Zm194.16,0c9.05,0,16.39,3.81,16.39,8.51a3.44,3.44,0,0,1,0,.46,2.93,2.93,0,0,1,0,.41c0,4.14-7.14,7.53-16,7.64h-.84c-8.83-.11-16-3.5-16-7.64a2.88,2.88,0,0,1,0-.41,3.46,3.46,0,0,1,0-.46c0-4.7,7.33-8.51,16.38-8.51M128.44,156v48.41c0,4.45-2.31,8.58-7.11,8.58s-7.17-3.74-7.17-8.58V156c0-5.76,3.71-8.63,7.69-8.58s6.59,3.82,6.59,8.58"/><path class="cls-2" d="M1241,126.19A103.13,103.13,0,0,0,1140.47,25.62l-2.54-11.52-2.53,11.52a103.13,103.13,0,0,0-100.55,100.57l-11.53,2.53,11.53,2.52A103.11,103.11,0,0,0,1135.4,231.8l2.53,11.53,2.54-11.53A103.11,103.11,0,0,0,1241,131.24l11.53-2.52Zm-6.22-1.37-31.82-7a66,66,0,0,0-54.16-54.17l-7-31.82a97,97,0,0,1,93,93M1154,87.42,1149.76,68a62,62,0,0,1,48.91,48.91l-19.44-4.27a44.45,44.45,0,0,0-25.2-25.2m21.51,24.39-17-3.72-3.73-17a41.34,41.34,0,0,1,20.7,20.7m-41.5-80-7,31.82a66,66,0,0,0-54.16,54.17l-31.82,7a97,97,0,0,1,93-93m-37.4,80.77-19.44,4.27A61.92,61.92,0,0,1,1126.1,68l-4.26,19.44a44.42,44.42,0,0,0-25.2,25.2M1121,91.1l-3.72,17-17,3.72A41.41,41.41,0,0,1,1121,91.1m-80,41.51,31.82,7a66,66,0,0,0,54.16,54.17l7,31.82a97,97,0,0,1-93-93m80.77,37.4,4.26,19.44a61.92,61.92,0,0,1-48.9-48.91l19.44,4.27a44.45,44.45,0,0,0,25.2,25.2m-21.52-24.39,17,3.73,3.72,17a41.4,41.4,0,0,1-20.71-20.7m41.51,80,7-31.82A66,66,0,0,0,1203,139.59l31.82-7a97,97,0,0,1-93,93m37.4-80.77,19.44-4.27a62,62,0,0,1-48.91,48.91L1154,170a44.45,44.45,0,0,0,25.2-25.2m-24.39,21.51,3.73-17,17-3.73a41.4,41.4,0,0,1-20.71,20.7m-16.91-37.6,18.57,18.56-18.57,84.58V128.72l-18.56,18.56-84.59-18.56h103.15l-18.56-18.57,18.56-84.59V128.72l18.57-18.57,84.59,18.57Z"/></svg>